<svg width="16" height="17" viewBox="0 0 16 17" fill="none" xmlns="http://www.w3.org/2000/svg">
<path d="M15.7824 14.5214L12.6666 11.4055C12.5259 11.2649 12.3353 11.1867 12.1353 11.1867H11.6259C12.4884 10.0835 13.001 8.69594 13.001 7.18645C13.001 3.59556 10.0914 0.685974 6.50048 0.685974C2.90959 0.685974 0 3.59556 0 7.18645C0 10.7773 2.90959 13.6869 6.50048 13.6869C8.00996 13.6869 9.39756 13.1744 10.5008 12.3118V12.8212C10.5008 13.0213 10.5789 13.2119 10.7195 13.3525L13.8354 16.4684C14.1292 16.7621 14.6042 16.7621 14.8948 16.4684L15.7793 15.5839C16.0731 15.2902 16.0731 14.8151 15.7824 14.5214ZM6.50048 11.1867C4.29094 11.1867 2.50018 9.39911 2.50018 7.18645C2.50018 4.97691 4.28781 3.18616 6.50048 3.18616C8.71001 3.18616 10.5008 4.97379 10.5008 7.18645C10.5008 9.39599 8.71314 11.1867 6.50048 11.1867Z" fill="#636363"/>
</svg>
