<svg width="24" height="24" viewBox="0 0 24 24" fill="none" xmlns="http://www.w3.org/2000/svg">
<path d="M23.4289 0.00784338H21.1728C21.0955 0.00775609 21.0189 0.0233757 20.9478 0.0537551C20.8767 0.0841345 20.8125 0.128641 20.7591 0.184575C20.7057 0.240509 20.6642 0.306706 20.6372 0.379151C20.6101 0.451596 20.5981 0.52878 20.6017 0.606023L20.7921 4.5444C19.6854 3.24024 18.3078 2.19288 16.7552 1.47518C15.2026 0.757472 13.5123 0.386663 11.8018 0.388546C5.29844 0.388546 -0.00475559 5.69602 3.2002e-06 12.1994C0.00476199 18.7132 5.28702 23.9921 11.8018 23.9921C14.7242 23.9963 17.5434 22.912 19.71 20.9508C19.7678 20.899 19.8145 20.8359 19.8472 20.7655C19.8799 20.695 19.8978 20.6186 19.9 20.541C19.9021 20.4633 19.8884 20.3861 19.8596 20.3139C19.8309 20.2418 19.7877 20.1762 19.7328 20.1213L18.1148 18.5033C18.0124 18.401 17.8749 18.3413 17.7302 18.3365C17.5855 18.3316 17.4444 18.3819 17.3353 18.4772C16.0569 19.602 14.4659 20.3104 12.7746 20.5079C11.0832 20.7055 9.37184 20.3828 7.86857 19.5829C6.3653 18.783 5.14156 17.5438 4.3605 16.0307C3.57943 14.5176 3.27814 12.8023 3.49679 11.1135C3.71545 9.4248 4.44366 7.84282 5.58434 6.57851C6.72503 5.31419 8.224 4.4276 9.88142 4.03693C11.5388 3.64627 13.276 3.77008 14.8612 4.39187C16.4465 5.01366 17.8046 6.10389 18.7544 7.51721L13.9228 7.28546C13.8455 7.28178 13.7684 7.29384 13.6959 7.32089C13.6235 7.34794 13.5573 7.38942 13.5013 7.44282C13.4454 7.49621 13.4009 7.56041 13.3705 7.63153C13.3401 7.70264 13.3245 7.77918 13.3246 7.85651V10.1127C13.3246 10.2641 13.3848 10.4094 13.4919 10.5165C13.599 10.6235 13.7442 10.6837 13.8957 10.6837H23.4289C23.5804 10.6837 23.7256 10.6235 23.8327 10.5165C23.9398 10.4094 24 10.2641 24 10.1127V0.578898C24 0.427445 23.9398 0.282195 23.8327 0.175101C23.7256 0.0680079 23.5804 0.00784338 23.4289 0.00784338Z" fill="#636363"/>
</svg>
